<svg
      width="164"
      height="28"
      viewBox="0 0 164 28"
      fill="none"
      xmlns="http://www.w3.org/2000/svg"
    >
      <path
        d="M154.756 4.00462H155.566L155.556 6.70462H156.606V4.00462H157.406V3.18462H154.756V4.00462ZM157.956 6.70462H158.896V4.41462L159.806 6.70462H160.516L161.426 4.49462L161.446 6.70462H162.416V3.18462H161.116L160.196 5.44462L159.346 3.18462H157.956V6.70462Z"
        fill="white"
      />
      <path
        d="M29.8964 15.4994H42.248L33.3006 0L26.2571 12.1961H17.7216L19.6292 15.4994H24.3496L21.124 21.087L8.94921 0L0 15.4994H14.0833L21.124 27.6936L33.2988 6.6094L36.5308 12.1961H31.8105L29.8964 15.4994ZM5.72364 12.1961L8.94921 6.6094L12.1766 12.1961H5.72364Z"
        fill="#AB2F85"
      />
      <path
        d="M57.9153 14.3793L53.1785 4.44023H51.2757L49.5753 18.3873H51.721L52.9154 8.42801L57.0246 16.8287H58.8464L62.9354 8.42801L64.1297 18.3873H66.2754L64.575 4.44023H62.652L57.9153 14.3793ZM77.6097 13.6303C77.6097 10.6344 75.5449 8.73164 72.8729 8.73164C70.2009 8.73164 68.0147 10.6344 68.0147 13.6303C68.0147 16.6262 70.2009 18.5898 72.8729 18.5898C74.634 18.5898 76.4356 17.8408 77.2453 16.1607L75.5449 15.4117C75.0591 16.2821 74.0267 16.7679 72.9741 16.7679C71.4357 16.7679 70.3021 15.857 70.0794 14.3996H77.5894C77.6097 14.1769 77.6097 13.853 77.6097 13.6303ZM70.0794 12.8814C70.3021 11.4239 71.4154 10.5535 72.8729 10.5535C74.3101 10.5535 75.3425 11.4037 75.5652 12.8814H70.0794ZM82.6447 5.35114H80.5597V8.93407H78.8593V10.6547H80.5597V18.3873H82.6447V10.6547H84.6487V8.93407H82.6447V5.35114ZM93.8408 18.3873H95.9056V8.93407H93.8408V10.2701C93.1931 9.19722 91.7963 8.73164 90.6628 8.73164C88.1324 8.73164 85.8653 10.6344 85.8653 13.6506C85.8653 16.6667 88.1324 18.5898 90.6628 18.5898C91.8773 18.5898 93.1931 18.0634 93.8408 17.0311V18.3873ZM88.011 13.6303C88.011 11.8895 89.347 10.7559 90.9057 10.7559C92.3226 10.7559 93.8206 11.7883 93.8206 13.6303C93.8206 15.4926 92.4441 16.5655 90.9057 16.5655C89.347 16.5655 88.011 15.3712 88.011 13.6303ZM97.1448 4.44023L101.375 18.3873H103.379L107.59 4.44023H105.363L102.367 14.8044L99.3917 4.44023H97.1448ZM117.581 13.6303C117.581 10.6344 115.516 8.73164 112.844 8.73164C110.172 8.73164 107.986 10.6344 107.986 13.6303C107.986 16.6262 110.172 18.5898 112.844 18.5898C114.605 18.5898 116.407 17.8408 117.216 16.1607L115.516 15.4117C115.03 16.2821 113.998 16.7679 112.945 16.7679C111.407 16.7679 110.273 15.857 110.051 14.3996H117.56C117.581 14.1769 117.581 13.853 117.581 13.6303ZM110.051 12.8814C110.273 11.4239 111.387 10.5535 112.844 10.5535C114.281 10.5535 115.314 11.4037 115.536 12.8814H110.051ZM121.867 14.9866C121.867 12.4765 122.616 10.6952 124.397 10.6952C124.802 10.6952 125.247 10.7559 125.794 11.0191L126.138 9.09601C125.834 8.87334 125.126 8.73164 124.458 8.73164C123.264 8.73164 122.353 9.39965 121.867 11.1V8.93407H119.782V18.3873H121.867V14.9866ZM131.349 14.602C132.057 14.7639 132.664 15.0878 132.664 15.7153C132.664 16.4238 131.936 16.8489 130.984 16.8489C129.871 16.8489 129.223 16.3023 129.122 15.4926H127.199C127.26 17.4967 129.041 18.5898 130.822 18.5898C132.988 18.5898 134.587 17.5574 134.587 15.7356C134.587 14.8044 134.142 13.4684 132.118 12.9826L130.66 12.6182C130.154 12.4765 129.648 12.2741 129.507 11.8895C129.405 11.5858 129.426 11.3024 129.588 11.0393C129.81 10.7154 130.377 10.513 130.924 10.513C131.571 10.513 132.219 10.8166 132.3 11.5251H134.284C134.183 9.50086 132.502 8.73164 130.843 8.73164C129.122 8.73164 127.563 9.82474 127.462 11.2215C127.32 12.7599 128.049 13.7518 130.073 14.2983L131.349 14.602ZM143.238 14.0149C143.238 15.8975 142.023 16.5655 140.809 16.5655C139.675 16.5655 138.845 15.7558 138.845 14.1971V8.93407H136.76V14.44C136.74 17.1323 138.096 18.5898 140.424 18.5898C141.416 18.5898 142.691 18.0837 143.238 17.0108V18.3873H145.323V8.93407H143.238V14.0149ZM151.71 14.602C152.418 14.7639 153.026 15.0878 153.026 15.7153C153.026 16.4238 152.297 16.8489 151.345 16.8489C150.232 16.8489 149.584 16.3023 149.483 15.4926H147.56C147.621 17.4967 149.402 18.5898 151.183 18.5898C153.349 18.5898 154.949 17.5574 154.949 15.7356C154.949 14.8044 154.503 13.4684 152.479 12.9826L151.022 12.6182C150.515 12.4765 150.009 12.2741 149.868 11.8895C149.767 11.5858 149.787 11.3024 149.949 11.0393C150.171 10.7154 150.738 10.513 151.285 10.513C151.932 10.513 152.58 10.8166 152.661 11.5251H154.645C154.544 9.50086 152.864 8.73164 151.204 8.73164C149.483 8.73164 147.924 9.82474 147.823 11.2215C147.682 12.7599 148.41 13.7518 150.435 14.2983L151.71 14.602Z"
        fill="white"
      />
    </svg>
